<svg width="355" height="44" viewBox="0 0 355 44" fill="none" xmlns="http://www.w3.org/2000/svg">
<path d="M68.8091 0.704239L56.0504 22.4381L54.1145 26.5737L54.5545 22.8781L54.4665 0.704239H44.6995V43.4681H44.7875H53.6746L66.5213 21.2942L68.2812 17.4226L67.9292 20.8543L68.0172 43.4681H77.7842L77.6963 0.704239H68.8091Z" fill="black"/>
<path d="M19.5341 0.703987H14.7826L0 43.4678H9.85504L19.2701 12.9348L28.6852 43.4678H38.9802L24.1976 0.703987H19.5341Z" fill="black"/>
<path d="M116.149 0.704239H88.4314V10.4713V43.4681H98.1984V10.4713H116.149V0.704239Z" fill="black"/>
<path d="M143.514 43.4681H153.809L139.026 0.704239H134.275H129.523L114.741 43.3801H124.596L127.06 35.2849H140.962L143.514 43.4681ZM129.699 27.3656L134.187 12.935L138.586 27.3656H129.699Z" fill="black"/>
<path d="M184.255 42.6948L168.212 32.1985V1.20397H200.384V32.1977L184.255 42.6948Z" fill="#2C39F2" stroke="#2C39F2"/>
<path d="M193.845 24.9895C194.197 24.9895 194.549 24.9895 194.901 24.8135V28.3331C194.021 28.5971 192.877 28.8611 191.821 28.8611C189.886 28.8611 188.39 28.1572 187.598 26.7493C185.662 28.1572 183.462 29.0371 180.559 28.9491C176.951 28.9491 173.783 26.8373 173.871 23.1417C173.959 18.3901 178.535 16.9823 182.406 16.9823C183.902 16.9823 185.662 17.2462 186.982 17.5102V16.8063C186.982 14.9585 185.486 13.6386 182.406 13.6386C179.767 13.6386 177.391 14.2545 175.543 14.9585V10.2949C177.127 9.76696 180.119 9.06303 183.022 9.15102C188.83 9.23901 192.525 11.5268 192.437 17.6862L192.349 23.6696C192.525 24.7255 193.141 24.9895 193.845 24.9895ZM178.799 22.8777C178.799 24.3735 180.207 25.4294 182.142 25.4294C183.902 25.4294 185.486 24.9895 186.982 23.8456V20.6779C186.014 20.4139 184.606 20.1499 183.374 20.1499C180.999 20.1499 178.799 20.8539 178.799 22.8777Z" fill="white"/>
<path d="M224.29 16.0144H223.322C222.179 16.0144 221.211 15.8385 220.331 15.4865C219.451 15.1345 218.659 14.6066 218.043 14.0786C217.427 13.5507 216.987 12.7588 216.635 11.8788C216.283 10.9989 216.195 10.119 216.195 9.15111C216.195 8.1832 216.371 7.2153 216.723 6.42337C217.075 5.63145 217.515 4.83953 218.131 4.22359C218.747 3.60765 219.539 3.16769 220.419 2.81573C221.299 2.46376 222.355 2.28778 223.41 2.28778H224.378V0H225.874V2.19979H226.842C227.986 2.19979 228.954 2.37577 229.834 2.72773C230.714 3.0797 231.506 3.60765 232.122 4.1356C232.737 4.66355 233.177 5.45547 233.529 6.33538C233.881 7.2153 234.057 8.09521 234.057 9.06312C234.057 10.031 233.881 10.9989 233.529 11.7909C233.177 12.5828 232.737 13.3747 232.122 13.9906C231.506 14.6066 230.802 15.0465 229.834 15.3985C228.954 15.7505 227.898 15.9264 226.842 15.9264H225.874V18.1262H224.378V16.0144H224.29ZM224.29 14.7826V3.34367H223.322C222.443 3.34367 221.651 3.51966 220.947 3.78363C220.243 4.04761 219.715 4.39957 219.187 4.83953C218.659 5.27949 218.307 5.80743 218.043 6.42337C217.779 7.03931 217.691 7.65525 217.691 8.27119V9.76705C217.691 10.383 217.779 10.9989 218.043 11.6149C218.307 12.2308 218.659 12.7588 219.187 13.1987C219.715 13.6387 220.243 13.9906 220.947 14.2546C221.651 14.5186 222.443 14.6946 223.322 14.6946H224.29V14.7826ZM226.754 14.7826C227.634 14.7826 228.338 14.6066 229.042 14.3426C229.746 14.0786 230.362 13.7267 230.802 13.2867C231.242 12.8467 231.682 12.3188 231.946 11.7029C232.21 11.0869 232.298 10.471 232.298 9.85504V8.35919C232.298 7.74325 232.21 7.12731 231.946 6.51137C231.682 5.89543 231.33 5.36748 230.802 4.92752C230.274 4.48756 229.746 4.1356 229.042 3.87162C228.338 3.60765 227.546 3.43167 226.754 3.43167H225.786V14.8706H226.754V14.7826Z" fill="black"/>
<path d="M238.897 17.5105V0.616142H245.672C247.168 0.616142 248.312 1.0561 249.104 1.84802C249.896 2.72794 250.248 3.87183 250.248 5.27969C250.248 6.77554 249.896 7.91943 249.104 8.71135C248.312 9.59127 247.168 9.94323 245.672 9.94323H240.393V17.3345H238.897V17.5105ZM240.393 8.79935H245.672C246.64 8.79935 247.432 8.53537 247.96 8.00742C248.488 7.47947 248.752 6.77554 248.752 5.98362V4.75174C248.752 3.95982 248.488 3.25589 247.96 2.72794C247.432 2.19999 246.728 1.93601 245.672 1.93601H240.393V8.79935Z" fill="black"/>
<path d="M261.071 17.7744C258.871 17.7744 257.199 17.0705 255.879 15.5746C254.648 14.0788 254.032 11.967 254.032 9.06326C254.032 6.15955 254.648 4.04775 255.879 2.5519C257.111 1.05604 258.871 0.352112 261.071 0.352112C263.271 0.352112 264.943 1.05604 266.174 2.5519C267.406 4.04775 268.022 6.15955 268.022 9.06326C268.022 11.879 267.406 14.0788 266.174 15.5746C264.943 17.0705 263.271 17.7744 261.071 17.7744ZM261.071 16.5425C261.863 16.5425 262.655 16.3666 263.271 16.1026C263.975 15.8386 264.503 15.3986 264.943 14.8707C265.383 14.3427 265.823 13.6388 266.087 12.8469C266.35 12.055 266.438 11.1751 266.438 10.1192V8.00737C266.438 7.03946 266.35 6.07155 266.087 5.27963C265.823 4.48771 265.471 3.78378 264.943 3.25583C264.503 2.72788 263.887 2.28792 263.271 2.02395C262.655 1.75997 261.863 1.58399 261.071 1.58399C260.279 1.58399 259.487 1.75997 258.871 2.02395C258.167 2.28792 257.639 2.72788 257.111 3.25583C256.583 3.78378 256.231 4.48771 255.967 5.27963C255.704 6.07155 255.616 6.95147 255.616 8.00737V10.1192C255.616 11.0871 255.704 12.055 255.967 12.8469C256.231 13.6388 256.583 14.3427 257.111 14.8707C257.551 15.3986 258.167 15.8386 258.871 16.1026C259.487 16.3666 260.279 16.5425 261.071 16.5425Z" fill="black"/>
<path d="M284.125 9.59127H274.71V17.5105H273.214V0.616142H274.71V8.2714H284.125V0.616142H285.62V17.5105H284.125V9.59127Z" fill="black"/>
<path d="M297.06 1.93601V17.5105H295.564V1.93601H289.844V0.616142H302.779V1.93601H297.06Z" fill="black"/>
<path d="M306.915 17.5105V0.616142H316.946V1.93601H308.41V8.2714H316.506V9.59127H308.41V16.1906H316.946V17.5105H306.915Z" fill="black"/>
<path d="M333.136 9.59127H323.721V17.5105H322.225V0.616142H323.721V8.2714H333.136V0.616142H334.632V17.5105H333.136V9.59127Z" fill="black"/>
<path d="M338.503 16.1906H340.263C341.055 15.1347 341.583 13.7269 342.023 11.967C342.463 10.2072 342.639 8.00742 342.639 5.36768V0.616142H352.318V16.1906H354.606V21.1181H353.198V17.5105H339.911V21.1181H338.503V16.1906ZM350.822 16.1906V1.93601H344.047V5.54366C344.047 8.1834 343.871 10.3832 343.519 12.143C343.167 13.9028 342.639 15.2227 342.023 16.1906V16.2786H350.822V16.1906Z" fill="black"/>
<path d="M229.306 43.4682L227.458 38.1887H220.155L218.307 43.4682H216.811L222.882 26.5738H224.73L230.802 43.4682H229.306ZM223.762 27.9817H223.674L220.507 36.9568H227.018L223.762 27.9817Z" fill="black"/>
<path d="M235.465 42.1483H237.841L238.809 39.7725L232.386 26.5738H233.97L238.281 35.4609L239.425 37.9247H239.513L240.481 35.373L244.089 26.5738H245.584L239.337 41.9723C239.073 42.5883 238.809 42.9402 238.457 43.2042C238.105 43.3802 237.665 43.4682 237.049 43.4682H235.465V42.1483Z" fill="black"/>
<path d="M255.351 27.8937V43.4682H253.856V27.8937H248.136V26.5738H261.071V27.8937H255.351Z" fill="black"/>
<path d="M270.662 43.7322C268.55 43.7322 266.878 43.0283 265.734 41.5325C264.59 40.0366 263.975 37.9248 263.975 35.0211C263.975 32.2054 264.59 30.0056 265.734 28.5097C266.878 27.0139 268.55 26.2219 270.662 26.2219C272.07 26.2219 273.214 26.5739 274.182 27.1898C275.149 27.8058 275.853 28.6857 276.381 29.8296L275.149 30.5335C274.797 29.6536 274.182 28.8617 273.478 28.3337C272.686 27.8058 271.806 27.5418 270.75 27.5418C269.166 27.5418 267.934 28.0698 266.966 29.2137C266.086 30.3575 265.646 31.9414 265.646 34.0532V36.077C265.646 38.1888 266.086 39.7726 266.966 40.8285C267.846 41.8844 269.078 42.5004 270.75 42.5004C271.894 42.5004 272.862 42.2364 273.654 41.6204C274.446 41.0925 274.973 40.3006 275.413 39.3327L276.645 40.0366C276.117 41.1805 275.413 42.1484 274.446 42.7643C273.214 43.3803 272.07 43.7322 270.662 43.7322Z" fill="black"/>
<path d="M287.028 43.7323C284.828 43.7323 283.156 43.0284 281.837 41.5325C280.605 40.0367 279.989 37.9249 279.989 35.0212C279.989 32.1174 280.605 30.0057 281.837 28.5098C283.068 27.0139 284.828 26.31 287.028 26.31C289.228 26.31 290.9 27.0139 292.132 28.5098C293.363 30.0057 293.979 32.1174 293.979 35.0212C293.979 37.8369 293.363 40.0367 292.132 41.5325C290.9 43.0284 289.228 43.7323 287.028 43.7323ZM287.028 42.5004C287.82 42.5004 288.612 42.3245 289.228 42.0605C289.932 41.7965 290.46 41.3565 290.9 40.8286C291.34 40.3007 291.78 39.5967 292.044 38.8048C292.308 38.0129 292.396 37.133 292.396 36.0771V33.9653C292.396 32.9974 292.308 32.0295 292.044 31.2375C291.78 30.4456 291.428 29.7417 290.9 29.2137C290.46 28.6858 289.844 28.2458 289.228 27.9818C288.612 27.7179 287.82 27.5419 287.028 27.5419C286.236 27.5419 285.444 27.7179 284.828 27.9818C284.124 28.2458 283.596 28.6858 283.068 29.2137C282.541 29.7417 282.189 30.4456 281.925 31.2375C281.661 32.0295 281.573 32.9094 281.573 33.9653V36.0771C281.573 37.045 281.661 38.0129 281.925 38.8048C282.189 39.5967 282.541 40.3007 283.068 40.8286C283.508 41.3565 284.124 41.7965 284.828 42.0605C285.444 42.3245 286.236 42.5004 287.028 42.5004Z" fill="black"/>
<path d="M299.259 43.4682V26.5738H306.035C307.53 26.5738 308.674 27.0138 309.466 27.8057C310.258 28.6856 310.61 29.8295 310.61 31.2374C310.61 32.7332 310.258 33.8771 309.466 34.669C308.674 35.5489 307.53 35.9009 306.035 35.9009H300.755V43.2922H299.259V43.4682ZM300.755 34.757H306.035C307.002 34.757 307.794 34.493 308.322 33.9651C308.85 33.4371 309.114 32.7332 309.114 31.9413V30.7974C309.114 30.0055 308.85 29.3015 308.322 28.7736C307.794 28.2457 307.09 27.9817 306.035 27.9817H300.755V34.757Z" fill="black"/>
<path d="M321.081 43.7322C318.969 43.7322 317.297 43.0283 316.153 41.5325C315.009 40.0366 314.393 37.9248 314.393 35.0211C314.393 32.2054 315.009 30.0056 316.153 28.5097C317.297 27.0139 318.969 26.2219 321.081 26.2219C322.489 26.2219 323.633 26.5739 324.6 27.1898C325.568 27.8058 326.272 28.6857 326.8 29.8296L325.568 30.5335C325.216 29.6536 324.6 28.8617 323.897 28.3337C323.105 27.8058 322.225 27.5418 321.169 27.5418C319.585 27.5418 318.353 28.0698 317.385 29.2137C316.505 30.3575 316.065 31.9414 316.065 34.0532V36.077C316.065 38.1888 316.505 39.7726 317.385 40.8285C318.265 41.8844 319.497 42.5004 321.169 42.5004C322.313 42.5004 323.281 42.2364 324.072 41.6204C324.864 41.0925 325.392 40.3006 325.832 39.3327L327.064 40.0366C326.536 41.1805 325.832 42.1484 324.864 42.7643C323.633 43.3803 322.401 43.7322 321.081 43.7322Z" fill="black"/>
</svg>
